HIERARCHY
ROOT Hips
{
	OFFSET 0.000000 0.000000 0.000000
	CHANNELS 6 Xposition Yposition Zposition Zrotation Yrotation Xrotation 
	JOINT LHipJoint
	{
		OFFSET 0.000000 0.000000 0.000000
		CHANNELS 3 Zrotation Yrotation Xrotation
		JOINT LeftUpLeg
		{
			OFFSET 1.363060 -1.794630 0.839290
			CHANNELS 3 Zrotation Yrotation Xrotation
			JOINT LeftLeg
			{
				OFFSET 2.448110 -6.726130 0.000000
				CHANNELS 3 Zrotation Yrotation Xrotation
				JOINT LeftFoot
				{
					OFFSET 2.562200 -7.039590 0.000000
					CHANNELS 3 Zrotation Yrotation Xrotation
					JOINT LeftToeBase
					{
						OFFSET 0.157640 -0.433110 2.322550
						CHANNELS 3 Zrotation Yrotation Xrotation
						End Site
						{
							OFFSET 0.000000 0.000000 0.000000
						}
					}
				}
			}
		}
	}
	JOINT RHipJoint
	{
		OFFSET 0.000000 0.000000 0.000000
		CHANNELS 3 Zrotation Yrotation Xrotation
		JOINT RightUpLeg
		{
			OFFSET -1.305520 -1.794630 0.839290
			CHANNELS 3 Zrotation Yrotation Xrotation
			JOINT RightLeg
			{
				OFFSET -2.542530 -6.985550 0.000000
				CHANNELS 3 Zrotation Yrotation Xrotation
				JOINT RightFoot
				{
					OFFSET -2.568260 -7.056230 0.000000
					CHANNELS 3 Zrotation Yrotation Xrotation
					JOINT RightToeBase
					{
						OFFSET -0.164730 -0.452590 2.363150
						CHANNELS 3 Zrotation Yrotation Xrotation
						End Site
						{
							OFFSET 0.000000 0.000000 0.000000
						}
					}
				}
			}
		}
	}
	JOINT LowerBack
	{
		OFFSET 0.000000 0.000000 0.000000
		CHANNELS 3 Zrotation Yrotation Xrotation
		JOINT Spine
		{
			OFFSET 0.028270 2.035590 -0.193380
			CHANNELS 3 Zrotation Yrotation Xrotation
			JOINT Spine1
			{
				OFFSET 0.056720 2.048850 -0.042750
				CHANNELS 3 Zrotation Yrotation Xrotation
				JOINT Neck
				{
					OFFSET 0.000000 0.000000 0.000000
					CHANNELS 3 Zrotation Yrotation Xrotation
					JOINT Neck1
					{
						OFFSET -0.054170 1.746240 0.172020
						CHANNELS 3 Zrotation Yrotation Xrotation
						JOINT Head
						{
							OFFSET 0.104070 1.761360 -0.123970
							CHANNELS 3 Zrotation Yrotation Xrotation
							End Site
							{
								OFFSET 0.000000 0.000000 0.000000
							}
						}
					}
				}
				JOINT LeftShoulder
				{
					OFFSET 0.000000 0.000000 0.000000
					CHANNELS 3 Zrotation Yrotation Xrotation
					JOINT LeftArm
					{
						OFFSET 3.362410 1.200890 -0.311210
						CHANNELS 3 Zrotation Yrotation Xrotation
						JOINT LeftForeArm
						{
							OFFSET 4.983000 -0.000000 -0.000000
							CHANNELS 3 Zrotation Yrotation Xrotation
							JOINT LeftHand
							{
								OFFSET 3.483560 -0.000000 -0.000000
								CHANNELS 3 Zrotation Yrotation Xrotation
								JOINT LeftFingerBase
								{
									OFFSET 0.000000 0.000000 0.000000
									CHANNELS 3 Zrotation Yrotation Xrotation
									JOINT LeftHandIndex1
									{
										OFFSET 0.715260 -0.000000 -0.000000
										CHANNELS 3 Zrotation Yrotation Xrotation
										End Site
										{
											OFFSET 0.000000 0.000000 0.000000
										}
									}
								}
								JOINT LThumb
								{
									OFFSET 0.000000 0.000000 0.000000
									CHANNELS 3 Zrotation Yrotation Xrotation
									End Site
									{
										OFFSET 0.000000 0.000000 0.000000
									}
								}
							}
						}
					}
				}
				JOINT RightShoulder
				{
					OFFSET 0.000000 0.000000 0.000000
					CHANNELS 3 Zrotation Yrotation Xrotation
					JOINT RightArm
					{
						OFFSET -3.136600 1.374050 -0.404650
						CHANNELS 3 Zrotation Yrotation Xrotation
						JOINT RightForeArm
						{
							OFFSET -5.241900 -0.000000 -0.000000
							CHANNELS 3 Zrotation Yrotation Xrotation
							JOINT RightHand
							{
								OFFSET -3.444170 -0.000000 -0.000000
								CHANNELS 3 Zrotation Yrotation Xrotation
								JOINT RightFingerBase
								{
									OFFSET 0.000000 0.000000 0.000000
									CHANNELS 3 Zrotation Yrotation Xrotation
									JOINT RightHandIndex1
									{
										OFFSET -0.622530 -0.000000 -0.000000
										CHANNELS 3 Zrotation Yrotation Xrotation
										End Site
										{
											OFFSET 0.000000 0.000000 0.000000
										}
									}
								}
								JOINT RThumb
								{
									OFFSET 0.000000 0.000000 0.000000
									CHANNELS 3 Zrotation Yrotation Xrotation
									End Site
									{
										OFFSET 0.000000 0.000000 0.000000
									}
								}
							}
						}
					}
				}
			}
		}
	}
}
MOTION
Frames: 9
Frame Time: 0.008333
-10.897316 17.049139 -0.534289 91.356620 89.027405 103.967473 -10.215525 4.662208 -0.487091 -6.135025 10.664497 -2.591815 -1.221500 1.754482 27.620573 0.197908 -3.002592 10.860537 -0.887200 -0.000001 -79.218400 8.964618 -0.639633 4.820749 12.201085 10.194553 -31.792547 2.628972 0.324902 10.605375 -0.916345 -4.024276 -1.678660 -1.135300 -0.000001 -33.011800 0.383504 -7.164062 -4.558040 0.010025 -7.346618 -3.571230 -6.082564 -7.407937 0.181917 12.858001 -19.474578 -9.308262 -3.547756 -0.260856 -0.347273 0.000000 0.000000 0.000000 7.918857 0.637548 -1.147746 -67.868879 3.312841 5.227627 179.431155 -88.708424 179.896604 16.082297 -4.500803 -0.708546 -0.232995 0.467737 0.000000 0.000000 0.000000 0.000000 0.000000 0.000000 0.000000 17.938039 -17.622898 -0.436339 58.601400 0.624230 0.006565 0.371547 80.020428 -0.011276 -6.683749 5.896133 -0.367380 0.161100 -0.268112 0.000000 0.000000 0.000000 0.000000 0.000000 0.000000 0.000000 
-10.684550 17.057529 -0.518006 79.759876 89.222783 92.394085 -10.525613 4.521245 -0.550652 -5.476273 11.207665 -4.128016 -0.882191 1.873832 30.916440 0.316629 -3.127910 12.959869 -1.109399 0.000000 -78.102000 8.708028 -0.898215 4.923062 12.758800 10.630533 -31.366943 2.664257 0.232671 11.317992 -0.960571 -4.101933 -2.088676 -1.101600 0.000001 -29.840900 0.573990 -7.066021 -4.642651 0.041822 -7.269660 -3.592695 -6.115661 -7.332708 0.171550 12.889315 -19.113003 -9.242582 -3.555590 -0.262377 -0.330490 0.000000 0.000000 0.000000 7.483653 0.965443 -1.043052 -68.559641 3.766246 5.453801 179.425403 -89.948981 179.900055 16.110150 -4.570865 -0.718116 -0.232146 0.454801 0.000000 0.000000 0.000000 0.000000 0.000000 0.000000 0.000000 17.989091 -17.181379 -0.480425 58.596640 1.399496 0.322812 0.362422 80.093549 -0.011912 -6.637008 5.902412 -0.365394 0.158605 -0.273211 0.000000 0.000000 0.000000 0.000000 0.000000 0.000000 0.000000 
-10.474100 17.065900 -0.502285 64.509274 89.233411 77.186831 -10.951821 4.333451 -0.603010 -4.897392 11.753907 -5.797277 -0.551236 1.958529 34.243228 0.470854 -2.897233 14.840278 -1.219600 -0.000001 -75.558000 8.334291 -1.176397 5.003868 13.338197 10.956747 -30.944313 2.735006 0.166090 11.962146 -0.975230 -4.006133 -2.624134 -1.030700 -0.000000 -26.469301 0.639493 -6.963333 -4.728028 0.043956 -7.177252 -3.614183 -6.147788 -7.242130 0.166215 12.928029 -18.730178 -9.181662 -3.565534 -0.263938 -0.315266 0.000000 0.000000 0.000000 7.065609 1.313652 -0.933686 -69.267322 4.233629 5.647582 -0.586722 -88.699699 -0.096421 16.160863 -4.640942 -0.728503 -0.231143 0.440854 -0.000000 0.000000 0.000000 0.000000 0.000000 0.000000 0.000000 18.070087 -16.713850 -0.520367 58.619053 2.239926 0.713948 0.357490 80.093846 -0.012372 -6.536679 5.895083 -0.359609 0.155408 -0.278104 0.000000 0.000000 0.000000 0.000000 0.000000 0.000000 0.000000 
-10.266385 17.074165 -0.486537 45.970543 88.888906 58.705242 -11.514015 4.172246 -0.632509 -4.468233 12.304074 -7.567517 -0.284722 2.053436 37.507705 0.657365 -2.211735 16.369494 -1.142500 -0.000000 -71.710200 7.839280 -1.410690 5.039076 13.903507 11.189893 -30.478883 2.837579 0.143122 12.563319 -0.946216 -3.698620 -3.245485 -0.926800 0.000000 -23.067200 0.520339 -6.804064 -4.809602 -0.004768 -7.011494 -3.636304 -6.182505 -7.077597 0.164971 12.980759 -18.329334 -9.127207 -3.577547 -0.265471 -0.302097 0.000000 0.000000 0.000000 6.672634 1.710664 -0.824819 -69.971769 4.721399 5.799304 -0.604821 -87.260555 -0.092774 16.230011 -4.703830 -0.738519 -0.229522 0.425583 0.000000 0.000000 0.000000 0.000000 0.000000 0.000000 0.000000 18.188464 -16.194852 -0.547878 58.667546 3.145966 1.181643 0.357225 80.032598 -0.012637 -6.391402 5.873061 -0.350620 0.152072 -0.282981 0.000000 0.000000 0.000000 0.000000 0.000000 0.000000 0.000000 
-10.061537 17.082216 -0.470534 26.982830 88.077692 39.787320 -12.064548 4.156966 -0.641637 -4.151969 12.899056 -9.434475 -0.149343 2.232381 40.640586 0.867378 -1.049818 17.430726 -0.837200 0.000000 -66.860500 7.375531 -1.475904 5.026809 14.502388 11.404154 -29.915492 2.962674 0.180451 13.132491 -0.868741 -3.189034 -3.897172 -0.801800 0.000000 -19.670900 0.387495 -6.497631 -4.887131 -0.079227 -6.697415 -3.662303 -6.232662 -6.763364 0.162648 13.047521 -17.908589 -9.078877 -3.591270 -0.266947 -0.290754 0.000000 0.000000 0.000000 6.300061 2.195592 -0.722203 -70.662317 5.237260 5.900007 -0.628736 -85.758629 -0.088994 16.312775 -4.755411 -0.747369 -0.226503 0.408797 0.000000 0.000000 0.000000 0.000000 0.000000 0.000000 0.000000 18.335088 -15.580073 -0.552735 58.738136 4.110817 1.721909 0.362097 79.920059 -0.012695 -6.210564 5.838945 -0.339121 0.149209 -0.288150 0.000000 0.000000 0.000000 0.000000 0.000000 0.000000 0.000000 
-9.859543 17.090068 -0.453845 11.085550 87.050767 23.968361 -12.315356 4.261709 -0.661928 -3.816795 13.487858 -11.360776 -0.111225 2.487977 43.635121 1.080836 0.540191 17.954496 -0.304700 0.000000 -61.432200 7.189895 -1.360214 5.010118 15.203403 11.613891 -29.264439 3.091303 0.245788 13.617719 -0.765540 -2.563010 -4.546216 -0.668800 0.000000 -16.382101 0.558827 -6.071549 -4.944624 -0.106491 -6.292299 -3.687558 -6.308103 -6.356737 0.155647 13.126250 -17.469927 -9.035401 -3.608159 -0.268564 -0.281018 0.000000 0.000000 0.000000 5.942024 2.733997 -0.622105 -71.334336 5.768880 5.957162 -0.656602 -84.210328 -0.085164 16.402626 -4.792133 -0.754237 -0.222112 0.391042 -0.000000 0.000000 0.000000 0.000000 0.000000 0.000000 0.000000 18.504187 -14.892940 -0.542489 58.817407 5.108034 2.316052 0.369892 79.775784 -0.012625 -6.010911 5.795879 -0.326222 0.146570 -0.293366 0.000000 0.000000 0.000000 0.000000 0.000000 0.000000 0.000000 
-9.660130 17.097740 -0.436320 -0.831967 86.194356 12.140298 -12.271983 4.314067 -0.707602 -3.421573 13.952791 -13.302064 -0.065073 2.727102 46.502176 1.284014 2.457716 17.923226 0.401800 0.000000 -55.874000 7.240048 -1.222182 5.026632 15.961153 11.781877 -28.582009 3.214828 0.298198 13.938640 -0.671124 -1.935878 -5.210410 -0.540600 0.000000 -13.099400 1.016411 -5.667752 -4.976430 -0.071852 -5.936334 -3.706368 -6.396633 -5.998587 0.146413 13.207477 -17.011641 -8.992473 -3.628731 -0.270490 -0.271867 0.000000 0.000000 0.000000 5.594538 3.248798 -0.513807 -71.975462 6.297156 5.995371 -0.686459 -82.629756 -0.081322 16.492312 -4.814021 -0.758999 -0.217399 0.373207 -0.000000 0.000000 0.000000 0.000000 0.000000 0.000000 0.000000 18.684735 -14.200865 -0.536290 58.908277 6.092460 2.934076 0.377010 79.622029 -0.012540 -5.807352 5.750974 -0.313129 0.143336 -0.298218 0.000000 0.000000 0.000000 0.000000 0.000000 0.000000 0.000000 
-9.463120 17.105364 -0.417433 -9.168920 85.603309 3.901188 -12.127718 4.245095 -0.760729 -3.060470 14.223149 -15.226916 0.022572 2.907634 49.184698 1.478365 4.596183 17.354623 1.197300 0.000001 -50.544500 7.345630 -1.152814 5.060180 16.663511 11.880733 -27.885271 3.330637 0.334255 14.092820 -0.594075 -1.351375 -5.874154 -0.426500 -0.000000 -9.998700 1.504854 -5.348429 -4.990837 -0.021369 -5.668011 -3.718413 -6.485593 -5.727971 0.138080 13.293054 -16.536109 -8.948282 -3.653199 -0.272767 -0.262856 0.000000 0.000000 0.000000 5.263832 3.718325 -0.395259 -72.561000 6.821078 6.032573 -0.717028 -81.046481 -0.077453 16.574969 -4.820344 -0.761047 -0.212928 0.355530 -0.000000 0.000000 0.000000 0.000000 0.000000 0.000000 0.000000 18.884252 -13.529819 -0.539981 59.013924 7.043071 3.568803 0.382002 79.476008 -0.012528 -5.621593 5.707546 -0.301145 0.139600 -0.302697 0.000000 0.000000 0.000000 0.000000 0.000000 0.000000 0.000000 
-9.268091 17.113116 -0.397067 -15.083056 85.198228 -1.900946 -11.982038 4.090781 -0.800841 -2.781093 14.292154 -17.139232 0.129300 3.044369 51.620404 1.666213 6.818652 16.282568 1.975600 -0.000001 -45.645700 7.427348 -1.135921 5.096163 17.267890 11.949938 -27.161351 3.436518 0.370947 14.096729 -0.536017 -0.845130 -6.515587 -0.332100 0.000000 -7.066600 1.912402 -5.089808 -5.005975 0.018880 -5.453621 -3.728465 -6.571876 -5.511567 0.130726 13.380237 -16.044083 -8.901500 -3.680230 -0.275296 -0.253425 0.000000 0.000000 0.000000 4.947318 4.162786 -0.270527 -73.074012 7.348807 6.078481 -0.747990 -79.492553 -0.073531 16.645344 -4.814174 -0.760685 -0.208650 0.338039 0.000000 0.000000 0.000000 0.000000 0.000000 0.000000 0.000000 19.093960 -12.865091 -0.549967 59.140584 7.948079 4.217965 0.384897 79.346489 -0.012632 -5.467869 5.670799 -0.291258 0.135821 -0.307099 0.000000 0.000000 0.000000 0.000000 0.000000 0.000000 0.000000 
